<svg xmlns="http://www.w3.org/2000/svg" width="128" height="128" viewBox="0 0 33.867 33.867">
<g stroke="#fff" fill="#fff"><path transform="matrix(.956 -.292307 .218207 .976 0 0)" d="M.43 24.671h9.957v2.589H.43z" stroke-width=".287"/>
<path d="M4.517 16.837V4.515l1.879.017 1.879.017 3.616 8.213 4.859 11.248c.126.364.263.661.306.661s.256-.476.474-1.058c.474-1.265.515-1.359 4.982-11.262l3.519-7.803 1.784-.017 1.784-.017v12.321 12.321h-1.39-1.39l.002-9.177.059-9.998c.135-1.952.146-2.243.084-2.243-.034 0-.099.163-.143.363-.241 1.078-.755 2.298-4.828 11.451l-4.259 9.572-.685.016-.685.016-1.115-2.511c-.745-1.677-1.091-2.525-1.042-2.551.04-.022.442-.133.894-.248l.84-.221c.01-.007-.111-.499-.269-1.091l-.287-1.107c0-.016-.487.098-1.082.254-1.282 1.776-4.106 1.512-5.652 1.3l-1.403.544-.26.067-.528.134a9.9 9.9 0 0 0-.467.129l-.199.062.284 1.087.296 1.101c.007.007.167-.028.357-.078a3.29 3.29 0 0 1 .424-.092c.061-.001.079.363.079 1.61v1.611H5.876 4.517z" stroke-width=".063"/></g></svg>
